<svg width="101" height="89" viewBox="0 0 101 89" fill="none" xmlns="http://www.w3.org/2000/svg">
<path d="M92.4958 8.51367C90.0524 6.06908 87.1513 4.12986 83.9582 2.80679C80.765 1.48372 77.3426 0.802734 73.8862 0.802734C70.4298 0.802734 67.0073 1.48372 63.8142 2.80679C60.6211 4.12986 57.72 6.06908 55.2765 8.51367L50.2055 13.5847L45.1345 8.51367C40.1989 3.57808 33.5048 0.805293 26.5248 0.805293C19.5448 0.805293 12.8508 3.57808 7.91516 8.51367C2.97957 13.4493 0.206787 20.1434 0.206787 27.1233C0.206787 34.1033 2.97957 40.7974 7.91516 45.733L12.9862 50.804L50.2055 88.0233L87.4248 50.804L92.4958 45.733C94.9404 43.2896 96.8797 40.3884 98.2027 37.1953C99.5258 34.0022 100.207 30.5797 100.207 27.1233C100.207 23.667 99.5258 20.2445 98.2027 17.0514C96.8797 13.8583 94.9404 10.9571 92.4958 8.51367V8.51367Z" fill="#8D2020"/>
</svg>
