<svg width="100" height="100" viewBox="0 0 100 100" fill="none" xmlns="http://www.w3.org/2000/svg">
<path d="M49.9977 0.164062C22.4685 0.164062 0.150635 22.4813 0.150635 50.0105C0.150635 77.5408 22.4685 99.8563 49.9977 99.8563C77.5298 99.8563 99.8453 77.5408 99.8453 50.0105C99.8453 22.4831 77.5298 0.166443 49.9971 0.166443L49.9977 0.164062V0.164062ZM72.8572 72.0569C71.9643 73.5212 70.0477 73.9855 68.5834 73.0867C56.8798 65.9379 42.1465 64.3188 24.7953 68.2831C23.1233 68.6641 21.4566 67.6164 21.0756 65.9438C20.6929 64.2712 21.7364 62.6045 23.4125 62.2236C42.4006 57.8837 58.6881 59.7533 71.8274 67.7831C73.2917 68.6819 73.756 70.5926 72.8572 72.0569V72.0569ZM78.9584 58.4825C77.8334 60.3129 75.4405 60.8903 73.6131 59.7653C60.2143 51.5278 39.7899 49.1426 23.9417 53.9533C21.8864 54.5742 19.7155 53.4158 19.0917 51.3641C18.4727 49.3087 19.6316 47.142 21.6834 46.517C39.7864 41.0242 62.2917 43.6849 77.6786 53.1403C79.506 54.2653 80.0834 56.6581 78.9584 58.4831V58.4825ZM79.4822 44.3492C63.4167 34.8069 36.9108 33.9295 21.5721 38.5849C19.109 39.3319 16.5042 37.9414 15.7578 35.4783C15.0114 33.0141 16.4006 30.4111 18.8655 29.6623C36.4733 24.317 65.7441 25.3498 84.2405 36.3301C86.4608 37.645 87.187 40.5063 85.8715 42.7188C84.562 44.9343 81.6929 45.6647 79.4846 44.3492H79.4822Z" fill="#1ED760"/>
</svg>
