<svg width="96" height="97" fill="none" xmlns="http://www.w3.org/2000/svg"><path fill-rule="evenodd" clip-rule="evenodd" d="M47.966.838C21.503.838.026 22.219.026 48.778c0 26.463 21.477 47.94 47.94 47.94 26.463 0 47.94-21.477 47.94-47.94 0-26.463-21.477-47.94-47.94-47.94zM76.155 48.78L32.434 20.687c-.576-.288-1.151.192-1.151.863v56.186c0 .67.671 1.15 1.15.863L76.156 50.6l.192-.191c.383-.48.287-1.247-.192-1.63z" fill="#282828"/><path d="M53.24 63.735L32.626 50.504c-.48-.384-.576-1.15-.192-1.63l.192-.192L53.24 35.45c.48-.287 1.15.192 1.15.863v26.463c0 .767-.67 1.247-1.15.96zM64.842 56.35l-9.109-5.849c-.48-.383-.575-1.15-.192-1.63.096 0 .096-.095.192-.095l9.109-5.849c.48-.288 1.15.192 1.15.863V55.39c-.096.767-.67 1.247-1.15.96z" fill="#282828"/></svg>