<svg width="1022" height="193" viewBox="0 0 1022 193" fill="none" xmlns="http://www.w3.org/2000/svg">
<path d="M8.23631 30.38H30.3337V89.6413L58.4577 30.38H80.5552L54.2391 82.0076L80.9569 171H57.8551L39.1727 108.324L30.3337 126.202V171H8.23631V30.38ZM91.4156 30.38H113.513V150.911H149.873V171H91.4156V30.38ZM178.33 30.38H208.262L231.163 171H209.066L205.048 143.077V143.479H179.937L175.919 171H155.429L178.33 30.38ZM202.436 124.395L192.593 54.8881H192.191L182.549 124.395H202.436ZM241.884 30.38H269.606L291.101 114.551H291.502V30.38H311.189V171H288.489L261.972 68.3474H261.57V171H241.884V30.38ZM358.951 173.009C348.237 173.009 340.068 169.996 334.443 163.969C328.819 157.809 326.006 149.036 326.006 137.653V63.727C326.006 52.3435 328.819 43.6385 334.443 37.6119C340.068 31.4514 348.237 28.3711 358.951 28.3711C369.665 28.3711 377.835 31.4514 383.459 37.6119C389.084 43.6385 391.897 52.3435 391.897 63.727V75.7802H371.005V62.3208C371.005 53.0801 367.188 48.4597 359.554 48.4597C351.92 48.4597 348.104 53.0801 348.104 62.3208V139.26C348.104 148.367 351.92 152.92 359.554 152.92C367.188 152.92 371.005 148.367 371.005 139.26V111.739H359.956V91.6501H391.897V137.653C391.897 149.036 389.084 157.809 383.459 163.969C377.835 169.996 369.665 173.009 358.951 173.009Z" fill="#282828"/>
<path d="M406.084 30.38H428.182V89.6413L456.306 30.38H478.403L452.087 82.0076L478.805 171H455.703L437.021 108.324L428.182 126.202V171H406.084V30.38ZM489.263 30.38H549.529V50.4686H511.361V87.6324H541.695V107.721H511.361V150.911H549.529V171H489.263V30.38ZM562.241 30.38H584.339V150.911H620.699V171H562.241V30.38ZM631.296 30.38H653.393V150.911H689.754V171H631.296V30.38ZM700.35 30.38H760.616V50.4686H722.448V87.6324H752.782V107.721H722.448V150.911H760.616V171H700.35V30.38ZM773.328 30.38H806.073C817.456 30.38 825.76 33.0585 830.983 38.4154C836.206 43.6385 838.817 51.7408 838.817 62.7226V71.3607C838.817 85.9584 833.996 95.1991 824.353 99.0829V99.4847C829.71 101.092 833.46 104.373 835.603 109.328C837.88 114.283 839.018 120.912 839.018 129.216V153.925C839.018 157.942 839.152 161.224 839.42 163.768C839.688 166.179 840.357 168.589 841.429 171H818.929C818.126 168.723 817.59 166.581 817.322 164.572C817.054 162.563 816.921 158.947 816.921 153.724V128.01C816.921 121.582 815.849 117.096 813.706 114.551C811.698 112.007 808.149 110.734 803.059 110.734H795.426V171H773.328V30.38ZM803.461 90.6457C807.881 90.6457 811.162 89.5074 813.305 87.2307C815.581 84.9539 816.72 81.1371 816.72 75.7802V64.9323C816.72 59.8432 815.782 56.1603 813.907 53.8836C812.166 51.6069 809.354 50.4686 805.47 50.4686H795.426V90.6457H803.461Z" fill="#800032"/>
<path fill-rule="evenodd" clip-rule="evenodd" d="M947 21C905.6 21 872 54.45 872 96C872 137.4 905.6 171 947 171C988.4 171 1022 137.4 1022 96C1022 54.6 988.4 21 947 21ZM991.101 95.9998L922.701 52.0498C921.801 51.5998 920.901 52.3498 920.901 53.3998V141.3C920.901 142.35 921.951 143.1 922.701 142.65L991.101 98.8498L991.401 98.5498C992.001 97.7998 991.851 96.5998 991.101 95.9998Z" fill="#282828"/>
<path d="M955.25 119.398L923 98.6979C922.25 98.0979 922.1 96.8979 922.7 96.1479C922.85 95.9979 922.85 95.9979 923 95.8479L955.25 75.1479C956 74.6979 957.05 75.4479 957.05 76.4979V117.898C957.05 119.098 956 119.848 955.25 119.398Z" fill="#282828"/>
<path d="M973.4 107.849L959.15 98.699C958.4 98.099 958.25 96.899 958.85 96.149C959 96.149 959 95.999 959.15 95.999L973.4 86.849C974.15 86.399 975.2 87.149 975.2 88.199V106.349C975.05 107.549 974.15 108.299 973.4 107.849Z" fill="#282828"/>
</svg>
