<svg width="14" height="18" viewBox="0 0 14 18" fill="none" xmlns="http://www.w3.org/2000/svg">
<path d="M2.24695 6.21529C2.50007 8.46529 4.5532 10.4059 7.00007 10.4059C9.64382 10.4059 11.8094 8.15591 11.8094 5.70904V5.65279C9.0532 5.28716 5.59382 7.28404 2.24695 6.21529" fill="#800032"/>
<path opacity="0.8" d="M13.1875 5.7375C13.1875 2.53125 11.5844 0.5625 11.5844 0.5625H2.41562C2.41562 0.5625 0.8125 2.55937 0.8125 5.7375C0.8125 8.775 3.42812 11.6156 6.69062 11.7844C6.6625 13.5563 6.49375 15.3844 6.07188 16.0312C5.45313 16.9313 3.31562 16.4812 3.31562 17.4375H10.6844C10.6844 16.4812 8.54687 16.9313 7.92812 16.0312C7.50625 15.3844 7.3375 13.5563 7.30937 11.7844C10.5719 11.6156 13.1875 8.80312 13.1875 5.7375ZM7 11.0531C4.24375 11.0531 1.96563 8.85938 1.68438 6.35625C1.65625 6.1875 1.65625 5.99063 1.65625 5.82188C1.65625 3.0375 3.03437 1.35 3.03437 1.35H10.9656C10.9656 1.35 12.3156 3.0375 12.3438 5.76562V5.82188C12.3438 8.52188 9.95312 11.0531 7 11.0531Z" fill="#E1E1E1"/>
</svg>
